<?xml version="1.0" encoding="UTF-8"?>
<!DOCTYPE svg PUBLIC "-//W3C//DTD SVG 1.1//EN" "http://www.w3.org/Graphics/SVG/1.1/DTD/svg11.dtd">
<svg xmlns="http://www.w3.org/2000/svg" version="1.1" width="714px" height="658px" style="shape-rendering:geometricPrecision; text-rendering:geometricPrecision; image-rendering:optimizeQuality; fill-rule:evenodd; clip-rule:evenodd" xmlns:xlink="http://www.w3.org/1999/xlink">
<g><path style="opacity:0.995" fill="#00070d" d="M 316.5,-0.5 C 343.167,-0.5 369.833,-0.5 396.5,-0.5C 491.27,10.3 570.77,50.6333 635,120.5C 680.489,173.109 706.655,234.109 713.5,303.5C 713.5,319.833 713.5,336.167 713.5,352.5C 700.469,460.64 648.136,543.807 556.5,602C 503.485,634.061 446.152,652.561 384.5,657.5C 365.833,657.5 347.167,657.5 328.5,657.5C 228.911,649.286 145.411,608.619 78,535.5C 32.5114,482.891 6.34475,421.891 -0.5,352.5C -0.5,336.167 -0.5,319.833 -0.5,303.5C 13.4038,190.817 69.0704,105.65 166.5,48C 213.311,21.6733 263.311,5.50664 316.5,-0.5 Z"/></g>
<g><path style="opacity:1" fill="#fcfdfd" d="M 508.5,506.5 C 496.345,507.495 484.011,507.829 471.5,507.5C 468.521,503.568 465.521,499.568 462.5,495.5C 391.874,496.33 321.207,496.83 250.5,497C 247.833,500.667 245.167,504.333 242.5,508C 229.82,508.833 217.154,508.666 204.5,507.5C 227.284,474.244 249.284,440.577 270.5,406.5C 245.793,399.951 231.293,383.951 227,358.5C 226.333,353.167 226.333,347.833 227,342.5C 234.613,265.477 242.279,188.477 250,111.5C 253.535,98.6314 261.702,90.4648 274.5,87C 301.967,85.8594 329.467,85.3594 357,85.5C 384.863,85.3638 412.696,85.8638 440.5,87C 452.433,90.599 459.933,98.4323 463,110.5C 471.091,190.323 479.258,270.156 487.5,350C 487.017,371.973 477.684,388.973 459.5,401C 454.442,403.698 449.109,405.532 443.5,406.5C 443.351,407.552 443.517,408.552 444,409.5C 465.722,441.715 487.222,474.049 508.5,506.5 Z"/></g>
<g><path style="opacity:1" fill="#050c11" d="M 325.5,97.5 C 346.503,97.3334 367.503,97.5 388.5,98C 391.728,99.5629 393.895,102.063 395,105.5C 395.667,112.5 395.667,119.5 395,126.5C 393.5,129.333 391.333,131.5 388.5,133C 367.167,133.667 345.833,133.667 324.5,133C 319.054,128.513 317.054,122.679 318.5,115.5C 316.744,107.703 319.077,101.703 325.5,97.5 Z"/></g>
<g><path style="opacity:1" fill="#02090f" d="M 279.5,144.5 C 330.168,144.333 380.834,144.5 431.5,145C 442.964,147.13 449.797,153.964 452,165.5C 453.28,180.687 454.78,195.854 456.5,211C 455.913,227.53 447.58,237.53 431.5,241C 381.833,241.667 332.167,241.667 282.5,241C 266.784,238.283 258.451,228.95 257.5,213C 259.135,194.756 261.301,176.589 264,158.5C 266.844,151.151 272.011,146.484 279.5,144.5 Z"/></g>
<g><path style="opacity:1" fill="#080f13" d="M 272.5,337.5 C 279.841,337.334 287.174,337.5 294.5,338C 307.615,339.05 312.115,345.883 308,358.5C 304.457,362.574 299.957,364.741 294.5,365C 287.167,365.667 279.833,365.667 272.5,365C 260.934,364.102 256.101,357.935 258,346.5C 258.792,344.413 259.959,342.579 261.5,341C 265.102,339.243 268.768,338.076 272.5,337.5 Z"/></g>
<g><path style="opacity:1" fill="#050c11" d="M 417.5,337.5 C 425.174,337.334 432.841,337.5 440.5,338C 454.932,339.57 459.099,347.07 453,360.5C 450.531,362.652 447.698,364.152 444.5,365C 434.5,365.667 424.5,365.667 414.5,365C 404.911,361.391 401.744,354.558 405,344.5C 407.85,339.661 412.017,337.328 417.5,337.5 Z"/></g>
<g><path style="opacity:1" fill="#00070d" d="M 407.5,415.5 C 373.167,416.833 338.833,416.833 304.5,415.5C 305.777,412.447 307.444,409.614 309.5,407C 340.167,406.333 370.833,406.333 401.5,407C 403.72,409.713 405.72,412.546 407.5,415.5 Z"/></g>
<g><path style="opacity:1" fill="#1f2e33" d="M 304.5,415.5 C 338.833,416.833 373.167,416.833 407.5,415.5C 408.043,415.56 408.376,415.893 408.5,416.5C 373.5,417.833 338.5,417.833 303.5,416.5C 303.624,415.893 303.957,415.56 304.5,415.5 Z"/></g>
<g><path style="opacity:1" fill="#080f13" d="M 298.5,424.5 C 337.168,424.333 375.835,424.5 414.5,425C 418.111,430.944 422.111,436.611 426.5,442C 380.167,442.667 333.833,442.667 287.5,442C 291.391,436.282 295.058,430.449 298.5,424.5 Z"/></g>
<g><path style="opacity:1" fill="#00070d" d="M 441.5,464.5 C 385.167,465.833 328.833,465.833 272.5,464.5C 275.366,459.943 278.366,455.443 281.5,451C 331.837,450.167 382.17,450.333 432.5,451.5C 435.757,455.688 438.757,460.021 441.5,464.5 Z"/></g>
<g><path style="opacity:1" fill="#4f5a5d" d="M 272.5,464.5 C 328.833,465.833 385.167,465.833 441.5,464.5C 442.043,464.56 442.376,464.893 442.5,465.5C 385.5,466.833 328.5,466.833 271.5,465.5C 271.624,464.893 271.957,464.56 272.5,464.5 Z"/></g>
<g><path style="opacity:1" fill="#030b10" d="M 266.5,472.5 C 326.834,472.333 387.168,472.5 447.5,473C 450.92,478.507 454.586,483.841 458.5,489C 390.833,489.667 323.167,489.667 255.5,489C 259.549,483.729 263.216,478.229 266.5,472.5 Z"/></g>
<g><path style="opacity:1" fill="#c9cdce" d="M 508.5,506.5 C 509.043,506.56 509.376,506.893 509.5,507.5C 496.673,508.825 484.006,508.825 471.5,507.5C 484.011,507.829 496.345,507.495 508.5,506.5 Z"/></g>
<g><path style="opacity:1" fill="#f0f1f1" d="M 260.5,533.5 C 263.247,533.187 265.914,533.52 268.5,534.5C 272.841,546.154 276.841,557.82 280.5,569.5C 278.143,569.663 275.81,569.497 273.5,569C 272.407,566.557 271.407,564.057 270.5,561.5C 266.5,560.167 262.5,560.167 258.5,561.5C 257.593,564.057 256.593,566.557 255.5,569C 253.19,569.497 250.857,569.663 248.5,569.5C 252.451,557.571 256.451,545.571 260.5,533.5 Z"/></g>
<g><path style="opacity:1" fill="#fbfbfb" d="M 292.5,563.5 C 294.075,565.114 294.741,567.114 294.5,569.5C 291.552,569.777 288.719,569.444 286,568.5C 285.5,558.839 285.334,549.172 285.5,539.5C 284.5,539.5 283.5,539.5 282.5,539.5C 282.5,537.5 282.5,535.5 282.5,533.5C 285.448,533.223 288.281,533.556 291,534.5C 291.17,544.342 291.67,554.009 292.5,563.5 Z"/></g>
<g><path style="opacity:1" fill="#f4f4f5" d="M 344.5,533.5 C 353.839,533.334 363.173,533.5 372.5,534C 373.444,536.719 373.777,539.552 373.5,542.5C 371.5,542.5 369.5,542.5 367.5,542.5C 367.5,541.5 367.5,540.5 367.5,539.5C 365.5,539.5 363.5,539.5 361.5,539.5C 361.5,549.5 361.5,559.5 361.5,569.5C 359.167,569.5 356.833,569.5 354.5,569.5C 354.5,559.5 354.5,549.5 354.5,539.5C 352.833,539.5 351.167,539.5 349.5,539.5C 349.5,540.5 349.5,541.5 349.5,542.5C 347.5,542.5 345.5,542.5 343.5,542.5C 343.264,539.391 343.597,536.391 344.5,533.5 Z"/></g>
<g><path style="opacity:1" fill="#eceded" d="M 305.5,542.5 C 316.605,541.27 321.938,546.27 321.5,557.5C 315.491,557.334 309.491,557.501 303.5,558C 306.729,565.231 311.563,566.398 318,561.5C 321.957,565.751 321.124,568.585 315.5,570C 304.389,571.896 298.056,567.229 296.5,556C 297.155,549.835 300.155,545.335 305.5,542.5 Z"/></g>
<g><path style="opacity:1" fill="#eceded" d="M 401.5,542.5 C 412.605,541.27 417.938,546.27 417.5,557.5C 411.491,557.334 405.491,557.501 399.5,558C 402.729,565.231 407.563,566.398 414,561.5C 417.957,565.751 417.124,568.585 411.5,570C 400.389,571.896 394.056,567.229 392.5,556C 393.155,549.835 396.155,545.335 401.5,542.5 Z"/></g>
<g><path style="opacity:1" fill="#f9f9f9" d="M 462.5,563.5 C 464.075,565.114 464.741,567.114 464.5,569.5C 461.552,569.777 458.719,569.444 456,568.5C 455.667,562.5 455.333,556.5 455,550.5C 450.574,547.868 447.574,549.201 446,554.5C 445.501,559.489 445.334,564.489 445.5,569.5C 443.5,569.5 441.5,569.5 439.5,569.5C 439.666,563.158 439.5,556.825 439,550.5C 434.574,547.868 431.574,549.201 430,554.5C 429.501,559.489 429.334,564.489 429.5,569.5C 427.5,569.5 425.5,569.5 423.5,569.5C 423.5,562.833 423.5,556.167 423.5,549.5C 422.5,549.5 421.5,549.5 420.5,549.5C 420.5,547.5 420.5,545.5 420.5,543.5C 423.187,543.336 425.854,543.503 428.5,544C 429.126,544.75 429.626,545.584 430,546.5C 435.569,540.826 440.569,541.16 445,547.5C 449.98,541.294 455.313,540.96 461,546.5C 461.173,552.348 461.673,558.015 462.5,563.5 Z"/></g>
<g><path style="opacity:1" fill="#f6f6f6" d="M 337.5,542.5 C 338.833,542.5 340.167,542.5 341.5,542.5C 341.5,544.833 341.5,547.167 341.5,549.5C 337.818,548.725 335.318,550.059 334,553.5C 332.661,558.736 332.161,564.07 332.5,569.5C 330.5,569.5 328.5,569.5 326.5,569.5C 326.5,562.833 326.5,556.167 326.5,549.5C 325.5,549.5 324.5,549.5 323.5,549.5C 323.5,547.5 323.5,545.5 323.5,543.5C 326.187,543.336 328.854,543.503 331.5,544C 332.191,545.067 332.691,546.234 333,547.5C 334.025,545.313 335.525,543.646 337.5,542.5 Z"/></g>
<g><path style="opacity:1" fill="#f6f6f6" d="M 387.5,542.5 C 388.833,542.5 390.167,542.5 391.5,542.5C 391.5,544.833 391.5,547.167 391.5,549.5C 387.818,548.725 385.318,550.059 384,553.5C 382.661,558.736 382.161,564.07 382.5,569.5C 380.5,569.5 378.5,569.5 376.5,569.5C 376.5,562.833 376.5,556.167 376.5,549.5C 375.5,549.5 374.5,549.5 373.5,549.5C 373.5,547.5 373.5,545.5 373.5,543.5C 376.187,543.336 378.854,543.503 381.5,544C 382.191,545.067 382.691,546.234 383,547.5C 384.025,545.313 385.525,543.646 387.5,542.5 Z"/></g>
<g><path style="opacity:1" fill="#0d1216" d="M 263.5,543.5 C 264.497,543.47 265.164,543.97 265.5,545C 266.505,548.029 267.505,551.029 268.5,554C 265.833,554.667 263.167,554.667 260.5,554C 261.801,550.596 262.801,547.096 263.5,543.5 Z"/></g>
<g><path style="opacity:1" fill="#0c1115" d="M 307.5,547.5 C 310.792,547.12 313.125,548.453 314.5,551.5C 311.167,552.833 307.833,552.833 304.5,551.5C 305.524,550.148 306.524,548.815 307.5,547.5 Z"/></g>
<g><path style="opacity:1" fill="#0c1115" d="M 403.5,547.5 C 406.792,547.12 409.125,548.453 410.5,551.5C 407.167,552.833 403.833,552.833 400.5,551.5C 401.524,550.148 402.524,548.815 403.5,547.5 Z"/></g>
<g><path style="opacity:1" fill="#6d7174" d="M 292.5,563.5 C 293.5,563.5 294.5,563.5 295.5,563.5C 295.795,565.735 295.461,567.735 294.5,569.5C 294.741,567.114 294.075,565.114 292.5,563.5 Z"/></g>
<g><path style="opacity:1" fill="#6d7174" d="M 462.5,563.5 C 463.5,563.5 464.5,563.5 465.5,563.5C 465.795,565.735 465.461,567.735 464.5,569.5C 464.741,567.114 464.075,565.114 462.5,563.5 Z"/></g>
</svg>
