<?xml version="1.0" encoding="utf-8"?>
<svg viewBox="0 0 617 617" width="617" height="617" xmlns="http://www.w3.org/2000/svg">
  <ellipse style="stroke: rgb(255, 255, 0); fill: rgb(255, 255, 0);" cx="307.608" cy="308.843" rx="297.29" ry="297.778"/>
  <g transform="matrix(0.1, 0, 0, -0.1, 0, 617)" fill="#000000" stroke="none">
    <path d="M2810 6138 c-1141 -106 -2126 -832 -2560 -1889 -403 -981 -268 -2110 355 -2964 581 -796 1499 -1265 2480 -1265 981 0 1899 469 2480 1265 623 854 758 1983 355 2964 -476 1157 -1607 1910 -2855 1900 -88 -1 -203 -6 -255 -11z m580 -129 c324 -32 655 -125 947 -264 316 -151 553 -317 807 -564 478 -467 769 -1052 862 -1736 27 -194 24 -589 -5 -785 -66 -442 -217 -840 -455 -1198 -418 -630 -1044 -1069 -1771 -1242 -249 -60 -382 -74 -690 -74 -308 0 -441 14 -690 74 -995 237 -1804 985 -2114 1954 -22 68 -42 141 -45 162 -4 22 -15 80 -26 131 -139 646 -52 1339 241 1924 257 514 661 947 1152 1234 242 141 564 267 837 329 310 69 627 88 950 55z" style=""/>
    <path d="M1860 4451 c-139 -46 -224 -158 -225 -296 0 -258 299 -401 490 -233 172 151 138 405 -69 510 -44 23 -153 33 -196 19z" style=""/>
    <path d="M3929 4447 c-91 -34 -145 -85 -185 -171 -69 -151 -3 -325 151 -397 146 -70 312 -9 392 143 23 44 28 66 28 128 0 124 -60 221 -170 277 -60 31 -161 40 -216 20z" style=""/>
    <path d="M960 2190 l0 -110 2135 0 2135 0 0 110 0 110 -2135 0 -2135 0 0 -110z" style=""/>
  </g>
</svg>